#
# object wallFence
#

v  -5.3883 -39.3697 78.1631
v  5.5965 -39.4156 78.1631
v  -5.8014 -39.3694 77.6107
v  6.0096 -39.4154 77.6107
v  -5.8014 -39.3694 39.4405
v  6.0096 -39.4154 39.4405
v  -5.8014 -39.3694 -0.0000
v  6.0096 -39.4154 -0.0000
v  -5.8014 -39.3694 -36.6238
v  6.0096 -39.4154 -36.6238
v  -5.8014 -39.3694 -77.6226
v  6.0096 -39.4154 -77.6226
v  -5.3883 -39.3697 -78.1158
v  5.5965 -39.4156 -78.1158
v  -5.3883 19.2106 78.1631
v  5.5965 19.2107 78.1631
v  -5.8014 19.2108 77.6107
v  6.0096 19.2112 77.6107
v  -5.8014 19.2108 39.4405
v  6.0096 19.2116 39.4405
v  -5.8014 19.2108 -0.0000
v  6.0096 19.2116 -0.0000
v  -5.8014 19.2108 -36.6238
v  6.0096 19.2116 -36.6238
v  -5.8014 19.2108 -77.6226
v  6.0096 19.2116 -77.6226
v  -5.3883 19.2106 -78.1158
v  5.5965 19.2107 -78.1158
v  -5.3868 19.6850 77.6107
v  5.5981 19.6850 77.6107
v  5.5973 19.6850 -77.6226
v  -5.3870 19.6850 -77.6226
v  5.5987 19.6850 -36.6238
v  5.5987 19.6850 -0.0000
v  5.5973 19.6850 39.4405
v  -5.3862 19.6850 -36.6238
v  -5.3862 19.6850 -0.0000
v  -5.3862 19.6850 39.4405
# 38 vertices

vn -0.4472 -0.0000 0.8944
vn 0.4484 -0.0000 0.8939
vn 0.3939 0.3634 0.8443
vn -0.3942 0.3637 0.8440
vn 0.4484 -0.0000 0.8939
vn 0.9489 -0.0000 0.3156
vn 0.9030 0.3204 0.2861
vn 0.3939 0.3634 0.8443
vn 0.9489 -0.0000 0.3156
vn 1.0000 0.0000 -0.0000
vn 0.9365 0.3506 0.0000
vn 0.9030 0.3204 0.2861
vn 1.0000 0.0000 -0.0000
vn 1.0000 0.0000 -0.0000
vn 0.9368 0.3499 -0.0000
vn 0.9365 0.3506 0.0000
vn 1.0000 0.0000 -0.0000
vn 1.0000 0.0000 -0.0000
vn 0.9368 0.3499 -0.0000
vn 0.9368 0.3499 -0.0000
vn 1.0000 0.0000 -0.0000
vn 0.9398 0.0000 -0.3417
vn 0.8962 0.3182 -0.3092
vn 0.9368 0.3499 -0.0000
vn 0.9398 0.0000 -0.3417
vn 0.4235 0.0000 -0.9059
vn 0.3756 0.3442 -0.8605
vn 0.8962 0.3182 -0.3092
vn -0.4224 0.0000 -0.9064
vn -0.9398 0.0000 -0.3417
vn -0.8960 0.3188 -0.3090
vn -0.3759 0.3445 -0.8602
vn -0.9398 0.0000 -0.3417
vn -1.0000 0.0000 -0.0000
vn -0.9361 0.3518 0.0000
vn -0.8960 0.3188 -0.3090
vn -1.0000 0.0000 -0.0000
vn -1.0000 0.0000 -0.0000
vn -0.9361 0.3518 -0.0000
vn -0.9361 0.3518 0.0000
vn -1.0000 0.0000 -0.0000
vn -1.0000 0.0000 -0.0000
vn -0.9361 0.3518 -0.0000
vn -0.9361 0.3518 -0.0000
vn -1.0000 0.0000 -0.0000
vn -0.9489 -0.0000 0.3156
vn -0.9026 0.3218 0.2859
vn -0.9361 0.3518 -0.0000
vn -0.9489 -0.0000 0.3156
vn -0.4472 -0.0000 0.8944
vn -0.3942 0.3637 0.8440
vn -0.9026 0.3218 0.2859
vn -0.3942 0.3637 0.8440
vn -0.3729 0.8756 0.3069
vn -0.9026 0.3218 0.2859
vn 0.3939 0.3634 0.8443
vn 0.9030 0.3204 0.2861
vn 0.3746 0.8749 0.3071
vn -0.3942 0.3637 0.8440
vn 0.3939 0.3634 0.8443
vn -0.3729 0.8756 0.3069
vn 0.3939 0.3634 0.8443
vn 0.3746 0.8749 0.3071
vn -0.3729 0.8756 0.3069
vn -0.9026 0.3218 0.2859
vn -0.4131 0.9107 -0.0000
vn -0.9361 0.3518 -0.0000
vn -0.9026 0.3218 0.2859
vn -0.3729 0.8756 0.3069
vn -0.4131 0.9107 -0.0000
vn 0.9030 0.3204 0.2861
vn 0.9365 0.3506 0.0000
vn 0.4143 0.9102 0.0000
vn 0.9030 0.3204 0.2861
vn 0.4143 0.9102 0.0000
vn 0.3746 0.8749 0.3071
vn -0.3729 0.8756 0.3069
vn 0.4143 0.9102 0.0000
vn -0.4131 0.9107 -0.0000
vn -0.3729 0.8756 0.3069
vn 0.3746 0.8749 0.3071
vn 0.4143 0.9102 0.0000
vn -0.4131 0.9107 -0.0000
vn 0.4143 0.9102 0.0000
vn 0.4150 0.9098 0.0000
vn -0.4131 0.9107 -0.0000
vn 0.4150 0.9098 0.0000
vn -0.4131 0.9107 -0.0000
vn -0.4131 0.9107 -0.0000
vn 0.4150 0.9098 -0.0000
vn -0.4131 0.9107 0.0000
vn -0.4131 0.9107 -0.0000
vn 0.4150 0.9098 0.0000
vn 0.4150 0.9098 -0.0000
vn -0.4131 0.9107 0.0000
vn 0.3706 0.8682 -0.3300
vn -0.3697 0.8686 -0.3298
vn -0.4131 0.9107 0.0000
vn 0.4150 0.9098 -0.0000
vn 0.3706 0.8682 -0.3300
vn 0.3756 0.3442 -0.8605
vn -0.3697 0.8686 -0.3298
vn 0.3706 0.8682 -0.3300
vn 0.3756 0.3442 -0.8605
vn -0.3759 0.3445 -0.8602
vn -0.3697 0.8686 -0.3298
vn 0.8962 0.3182 -0.3092
vn 0.3756 0.3442 -0.8605
vn 0.3706 0.8682 -0.3300
vn -0.3759 0.3445 -0.8602
vn -0.8960 0.3188 -0.3090
vn -0.3697 0.8686 -0.3298
vn 0.9365 0.3506 0.0000
vn 0.9368 0.3499 -0.0000
vn 0.4150 0.9098 0.0000
vn 0.9368 0.3499 -0.0000
vn 0.9368 0.3499 -0.0000
vn 0.4150 0.9098 -0.0000
vn 0.9368 0.3499 -0.0000
vn 0.8962 0.3182 -0.3092
vn 0.3706 0.8682 -0.3300
vn 0.9368 0.3499 -0.0000
vn 0.3706 0.8682 -0.3300
vn 0.4150 0.9098 -0.0000
vn 0.9368 0.3499 -0.0000
vn 0.4150 0.9098 -0.0000
vn 0.4150 0.9098 0.0000
vn 0.9365 0.3506 0.0000
vn 0.4150 0.9098 0.0000
vn 0.4143 0.9102 0.0000
vn -0.9361 0.3518 -0.0000
vn -0.4131 0.9107 -0.0000
vn -0.4131 0.9107 -0.0000
vn -0.9361 0.3518 -0.0000
vn -0.4131 0.9107 -0.0000
vn -0.9361 0.3518 -0.0000
vn -0.9361 0.3518 -0.0000
vn -0.4131 0.9107 -0.0000
vn -0.4131 0.9107 0.0000
vn -0.9361 0.3518 -0.0000
vn -0.4131 0.9107 0.0000
vn -0.9361 0.3518 0.0000
vn -0.9361 0.3518 0.0000
vn -0.4131 0.9107 0.0000
vn -0.3697 0.8686 -0.3298
vn -0.9361 0.3518 0.0000
vn -0.3697 0.8686 -0.3298
vn -0.8960 0.3188 -0.3090
vn 0.4235 0.0000 -0.9059
vn -0.4224 0.0000 -0.9064
vn 0.3756 0.3442 -0.8605
vn -0.4224 0.0000 -0.9064
vn -0.3759 0.3445 -0.8602
vn 0.3756 0.3442 -0.8605
# 154 vertex normals

vt 0.9994 0.3700 0.9995
vt 0.7538 0.4528 0.0005
vt 0.7543 0.3695 0.9995
vt 0.5000 0.4528 0.0005
vt 0.5003 0.3695 0.9995
vt 0.2643 0.4528 0.0005
vt 0.2648 0.3695 0.9995
vt 0.0004 0.4528 0.0005
vt 0.0006 0.3695 0.9995
vt 1.0000 0.8051 0.0005
vt 0.7543 0.8051 0.0005
vt 0.5005 0.8051 0.0005
vt 0.2648 0.8051 0.0005
vt 0.0010 0.8051 0.0005
vt -0.0004 -0.0010 0.9995
vt 0.2648 0.0002 0.9995
vt 0.5005 0.0002 0.9995
vt 0.7543 0.0002 0.9995
vt 1.0000 0.0002 0.9995
vt 0.9995 0.4530 0.9924
vt 0.9994 0.3741 0.0000
vt 0.9992 0.4460 0.0000
vt 0.7546 0.3736 0.0000
vt 0.7542 0.4480 0.0000
vt 0.5003 0.3741 0.0000
vt 0.4996 0.4477 0.0000
vt 0.2640 0.4476 0.0000
vt 0.2651 0.3741 0.0000
vt 0.0005 0.4475 0.0000
vt 0.0006 0.3741 0.0000
vt 0.0068 0.8104 0.9960
vt 0.0069 0.8135 0.9995
vt 0.0069 0.8952 0.9995
vt 0.0070 0.8984 0.9924
vt 0.3670 0.8135 0.9995
vt 0.3670 0.8952 0.9995
vt 0.3670 0.8984 0.9924
vt 0.3670 0.8103 0.9924
vt 0.0025 0.8135 0.0000
vt 0.0025 0.8952 0.0000
vt 0.0114 0.8119 0.9995
vt 0.0114 0.8982 0.9995
vt 0.0114 0.8951 0.0005
vt 0.0114 0.8149 0.0005
vt 0.3669 0.8982 0.9995
vt 0.3669 0.8953 0.0005
vt 0.3671 0.8142 0.0005
vt 0.3671 0.8112 0.9995
vt 0.0071 0.8149 0.9995
vt 0.0071 0.8951 0.9995
# 50 texture coords

g wallFence
s 1
f 1/35/1 2/36/2 16/33/3 15/32/4 
f 2/36/5 4/37/6 18/34/7 16/33/8 
f 4/10/9 6/11/10 20/2/11 18/20/12 
f 6/11/13 8/12/14 22/4/15 20/2/16 
f 8/12/17 10/13/18 24/6/19 22/4/20 
f 10/13/21 12/14/22 26/8/23 24/6/24 
f 12/45/25 14/46/26 28/43/27 26/42/28 
f 13/47/29 11/48/30 25/41/31 27/44/32 
f 11/15/33 9/16/34 23/7/35 25/9/36 
f 9/16/37 7/17/38 21/5/39 23/7/40 
f 7/17/41 5/18/42 19/3/43 21/5/44 
f 5/18/45 3/19/46 17/1/47 19/3/48 
f 3/38/49 1/35/50 15/32/51 17/31/52 
f 15/32/53 29/39/54 17/31/55 
f 16/33/56 18/34/57 30/40/58 
f 15/32/59 16/33/60 29/39/61 
f 16/33/62 30/40/63 29/39/64 
f 17/1/65 38/23/66 19/3/67 
f 17/1/68 29/21/69 38/23/70 
f 18/20/71 20/2/72 35/24/73 
f 18/20/74 35/24/75 30/22/76 
f 29/21/77 35/24/78 38/23/79 
f 29/21/80 30/22/81 35/24/82 
f 38/23/83 35/24/84 34/26/85 
f 38/23/86 34/26/87 37/25/88 
f 37/25/89 33/27/90 36/28/91 
f 37/25/92 34/26/93 33/27/94 
f 36/28/95 31/29/96 32/30/97 
f 36/28/98 33/27/99 31/29/100 
f 28/43/101 32/49/102 31/50/103 
f 28/43/104 27/44/105 32/49/106 
f 26/42/107 28/43/108 31/50/109 
f 27/44/110 25/41/111 32/49/112 
f 20/2/113 22/4/114 34/26/115 
f 22/4/116 24/6/117 33/27/118 
f 24/6/119 26/8/120 31/29/121 
f 24/6/122 31/29/123 33/27/124 
f 22/4/125 33/27/126 34/26/127 
f 20/2/128 34/26/129 35/24/130 
f 19/3/131 38/23/132 37/25/133 
f 19/3/134 37/25/135 21/5/136 
f 21/5/137 37/25/138 36/28/139 
f 21/5/140 36/28/141 23/7/142 
f 23/7/143 36/28/144 32/30/145 
f 23/7/146 32/30/147 25/9/148 
f 14/46/149 13/47/150 28/43/151 
f 13/47/152 27/44/153 28/43/154 
# 13 polygons - 34 triangles

#
# object wallFencePole
#

v  0.7880 0.0000 0.0045
v  0.3943 0.0000 -0.6775
v  -0.3932 0.0000 -0.6775
v  -0.7869 0.0000 0.0045
v  -0.3932 0.0000 0.6864
v  0.3943 0.0000 0.6864
v  0.7880 70.1554 0.0045
v  0.3943 70.1554 -0.6775
v  -0.3932 70.1554 -0.6775
v  -0.7869 70.1554 0.0045
v  -0.3932 70.1554 0.6864
v  0.3943 70.1554 0.6864
v  0.9251 70.2139 0.0045
v  0.4628 70.2139 -0.7962
v  -0.4617 70.2139 -0.7962
v  -0.9240 70.2139 0.0045
v  -0.4617 70.2139 0.8051
v  0.4628 70.2139 0.8051
v  0.9251 70.9082 0.0045
v  0.4628 70.9082 -0.7962
v  -0.4617 70.9082 -0.7962
v  -0.9240 70.9082 0.0045
v  -0.4617 70.9082 0.8051
v  0.4628 70.9082 0.8051
# 24 vertices

vn 1.0000 -0.0000 -0.0000
vn 0.5000 0.0000 -0.8660
vn 0.5000 0.0000 -0.8660
vn 1.0000 0.0000 0.0000
vn 0.5000 0.0000 -0.8660
vn -0.5000 0.0000 -0.8660
vn -0.5000 0.0000 -0.8660
vn 0.5000 0.0000 -0.8660
vn -0.5000 0.0000 -0.8660
vn -1.0000 0.0000 0.0000
vn -1.0000 0.0000 0.0000
vn -0.5000 0.0000 -0.8660
vn -1.0000 0.0000 0.0000
vn -0.5000 -0.0000 0.8660
vn -0.5000 -0.0000 0.8660
vn -1.0000 0.0000 0.0000
vn -0.5000 -0.0000 0.8660
vn 0.5000 -0.0000 0.8660
vn 0.5000 -0.0000 0.8660
vn -0.5000 -0.0000 0.8660
vn 0.5000 -0.0000 0.8660
vn 1.0000 -0.0000 -0.0000
vn 1.0000 0.0000 0.0000
vn 0.5000 -0.0000 0.8660
vn 0.3923 -0.9198 0.0000
vn 0.1961 -0.9198 -0.3397
vn 0.4379 -0.4828 -0.7584
vn 0.8757 -0.4828 0.0000
vn 0.1961 -0.9198 -0.3397
vn -0.1961 -0.9198 -0.3397
vn -0.4379 -0.4828 -0.7584
vn 0.4379 -0.4828 -0.7584
vn -0.1961 -0.9198 -0.3397
vn -0.3923 -0.9198 0.0000
vn -0.8757 -0.4828 0.0000
vn -0.4379 -0.4828 -0.7584
vn -0.3923 -0.9198 0.0000
vn -0.1961 -0.9198 0.3397
vn -0.4379 -0.4828 0.7584
vn -0.8757 -0.4828 0.0000
vn -0.1961 -0.9198 0.3397
vn 0.1961 -0.9198 0.3397
vn 0.4379 -0.4828 0.7584
vn -0.4379 -0.4828 0.7584
vn 0.1961 -0.9198 0.3397
vn 0.3923 -0.9198 0.0000
vn 0.8757 -0.4828 0.0000
vn 0.4379 -0.4828 0.7584
vn 0.8757 -0.4828 0.0000
vn 0.4379 -0.4828 -0.7584
vn 0.5000 -0.0000 -0.8660
vn 1.0000 0.0000 -0.0000
vn 0.4379 -0.4828 -0.7584
vn -0.4379 -0.4828 -0.7584
vn -0.5000 -0.0000 -0.8660
vn 0.5000 -0.0000 -0.8660
vn -0.4379 -0.4828 -0.7584
vn -0.8757 -0.4828 0.0000
vn -1.0000 -0.0000 -0.0000
vn -0.5000 -0.0000 -0.8660
vn -0.8757 -0.4828 0.0000
vn -0.4379 -0.4828 0.7584
vn -0.5000 0.0000 0.8660
vn -1.0000 -0.0000 -0.0000
vn -0.4379 -0.4828 0.7584
vn 0.4379 -0.4828 0.7584
vn 0.5000 0.0000 0.8660
vn -0.5000 0.0000 0.8660
vn 0.4379 -0.4828 0.7584
vn 0.8757 -0.4828 0.0000
vn 1.0000 0.0000 -0.0000
vn 0.5000 0.0000 0.8660
vn 0.0000 1.0000 -0.0000
vn 0.0000 1.0000 -0.0000
vn 0.0000 1.0000 -0.0000
vn 0.0000 1.0000 -0.0000
vn 0.0000 1.0000 -0.0000
vn 0.0000 1.0000 -0.0000
# 78 vertex normals

vt 0.7500 0.3333 1.0000
vt 0.9167 0.3333 1.0000
vt 0.0833 0.3333 1.0000
vt 0.2500 0.3333 1.0000
vt 0.4167 0.3333 1.0000
vt 0.5833 0.3333 1.0000
vt 0.7500 0.6667 1.0000
vt 0.9167 0.6667 1.0000
vt 0.0833 0.6667 1.0000
vt 0.2500 0.6667 1.0000
vt 0.4167 0.6667 1.0000
vt 0.5833 0.6667 1.0000
vt 0.7500 1.0000 1.0000
vt 0.9167 1.0000 1.0000
vt 0.0833 1.0000 1.0000
vt 0.2500 1.0000 1.0000
vt 0.4167 1.0000 1.0000
vt 0.5833 1.0000 1.0000
vt -0.0833 0.3333 1.0000
vt -0.0833 0.6667 1.0000
vt -0.0833 0.6667 1.0000
vt -0.0833 1.0000 1.0000
vt 0.2157 0.0024 1.1535
vt 0.2558 0.9223 1.0398
vt 0.2157 0.9223 1.1535
vt 0.2558 0.0024 1.0398
vt 0.0478 0.9223 1.0398
vt 0.0478 0.0024 1.0398
vt 0.0878 0.9223 1.1535
vt 0.0878 0.0024 1.1535
vt 0.1278 0.9223 1.0398
vt 0.1278 0.0024 1.0398
vt 0.1757 0.9223 1.0398
vt 0.1757 0.0024 1.0398
vt -0.0001 0.0024 1.0398
vt -0.0001 0.9223 1.0398
vt 0.6667 1.0000 -0.0000
vt 0.2500 1.0000 -1.0000
vt 0.0833 1.0000 -1.0000
# 39 texture coords

g wallFencePole
s 1
f 39/73/155 40/76/156 46/74/157 45/75/158 
f 40/85/159 41/78/160 47/77/161 46/86/162 
f 41/78/163 42/80/164 48/79/165 47/77/166 
f 42/80/167 43/82/168 49/81/169 48/79/170 
f 43/82/171 44/84/172 50/83/173 49/81/174 
f 44/84/175 39/73/176 45/75/177 50/83/178 
s 8
f 45/51/179 46/52/180 52/58/181 51/57/182 
f 46/69/183 47/53/184 53/59/185 52/70/186 
f 47/53/187 48/54/188 54/60/189 53/59/190 
f 48/54/191 49/55/192 55/61/193 54/60/194 
f 49/55/195 50/56/196 56/62/197 55/61/198 
f 50/56/199 45/51/200 51/57/201 56/62/202 
f 51/57/203 52/58/204 58/64/205 57/63/206 
f 52/71/207 53/59/208 59/65/209 58/72/210 
f 53/59/211 54/60/212 60/66/213 59/65/214 
f 54/60/215 55/61/216 61/67/217 60/66/218 
f 55/61/219 56/62/220 62/68/221 61/67/222 
f 56/62/223 51/57/224 57/63/225 62/68/226 
s 1
f 62/68/227 57/63/228 58/64/229 59/87/230 60/88/231 61/89/232 
# 19 polygons

#
# object wire
#

v  -0.9741 0.5562 -40.5330
v  -1.0399 0.5562 40.2652
v  -0.9741 69.9524 -40.5330
v  -1.0399 69.9524 40.2652
# 4 vertices

vn -1.0000 -0.0000 -0.0004
vn -1.0000 -0.0000 -0.0004
vn -1.0000 -0.0000 -0.0004
vn -1.0000 -0.0000 -0.0004
# 4 vertex normals

vt 0.0000 0.0000 0.0000
vt 1.0000 0.0000 0.0000
vt 0.0000 1.0000 0.0000
vt 1.0000 1.0000 0.0000
# 4 texture coords

g wire
s 1
f 65/92/233 63/90/234 64/91/235 66/93/236 
# 1 polygons

